<svg width="40" height="40" viewBox="0 0 40 40" fill="none" xmlns="http://www.w3.org/2000/svg">
<g clip-path="url(#clip0_15993_6894)">
<path fill-rule="evenodd" clip-rule="evenodd" d="M28.2478 0C29.234 0 30.0334 0.799491 30.0334 1.78571V4.13026C30.0334 5.11649 29.234 5.91597 28.2478 5.91597C27.2615 5.91597 26.4621 5.11649 26.4621 4.13026V1.78571C26.4621 0.799491 27.2615 0 28.2478 0ZM11.5649 24.9661C15.397 24.9661 18.5036 21.8595 18.5036 18.0274C18.5036 14.1952 15.397 11.0886 11.5649 11.0886C7.73271 11.0886 4.62611 14.1952 4.62611 18.0274C4.62611 21.8595 7.73271 24.9661 11.5649 24.9661ZM0 38.8434C0 32.4566 5.17766 27.279 11.5646 27.279C17.9515 27.279 23.1292 32.4566 23.1292 38.8434C23.1292 39.4823 22.6114 40 21.9727 40H1.15646C0.517766 40 0 39.4823 0 38.8434ZM39.19 7.12211C39.9971 6.55549 40.1923 5.44177 39.6257 4.63457C39.0589 3.8274 37.9451 3.6324 37.138 4.19903L35.2191 5.54609C34.412 6.11274 34.2169 7.22646 34.7834 8.03363C35.3503 8.84083 36.464 9.03583 37.2711 8.4692L39.19 7.12211ZM16.8644 4.63457C16.2977 5.44177 16.4927 6.55549 17.2999 7.12211L19.2189 8.4692C20.026 9.03583 21.1397 8.84083 21.7064 8.03363C22.273 7.22646 22.078 6.11274 21.2708 5.54609L19.3519 4.19903C18.5447 3.6324 17.431 3.8274 16.8644 4.63457ZM28.1157 8.11477C31.6391 8.0416 34.6217 10.9739 34.6086 14.4981C34.5797 16.8375 33.1774 19.0711 31.0829 20.1138V23.2942C31.0783 23.479 31.0014 23.6547 30.8689 23.7837C30.7366 23.9127 30.5589 23.9849 30.374 23.9848H26.1214C25.9366 23.9849 25.759 23.9127 25.6266 23.7837C25.4941 23.6547 25.4174 23.479 25.4127 23.2942V20.1683C23.3821 19.1572 21.9962 17.0282 21.8935 14.7622C21.734 11.2416 24.5923 8.18794 28.1157 8.11477Z" fill="#FF6600"/>
</g>
<defs>
<clipPath id="clip0_15993_6894">
<rect width="40" height="40" fill="white"/>
</clipPath>
</defs>
</svg>
