<svg width="41" height="40" viewBox="0 0 41 40" fill="none" xmlns="http://www.w3.org/2000/svg">
<path fill-rule="evenodd" clip-rule="evenodd" d="M2.38026 1.25526C3.18398 0.451529 4.27409 0 5.41071 0H21.3701C22.5067 0 23.5968 0.451529 24.4006 1.25526L34.1554 11.0101C34.9591 11.8139 35.4109 12.904 35.4109 14.0406V35.7143C35.4109 36.8509 34.9591 37.9411 34.1554 38.7449C33.3517 39.5486 32.2617 40 31.1251 40H5.41071C4.27406 40 3.18398 39.5486 2.38026 38.7449C1.57653 37.9411 1.125 36.8509 1.125 35.7143V4.28571C1.125 3.14909 1.57653 2.05898 2.38026 1.25526ZM15.7295 12.9382C16.6925 13.6261 16.9155 14.9644 16.2277 15.9274L12.2377 21.5134C11.8716 22.0259 11.2985 22.3515 10.6707 22.4034C10.043 22.4554 9.42417 22.2285 8.97874 21.7831L6.58477 19.3891C5.74794 18.5523 5.74794 17.1955 6.58477 16.3587C7.42163 15.5218 8.7784 15.5218 9.61523 16.3587L10.2205 16.9639L12.7402 13.4364C13.4281 12.4734 14.7664 12.2503 15.7295 12.9382ZM18.4429 18.2143C18.4429 17.0308 19.4023 16.0714 20.5857 16.0714H27.7286C28.912 16.0714 29.8714 17.0308 29.8714 18.2143C29.8714 19.3977 28.912 20.3571 27.7286 20.3571H20.5857C19.4023 20.3571 18.4429 19.3977 18.4429 18.2143ZM18.4429 29.5537C18.4429 28.3701 19.4023 27.4107 20.5857 27.4107H27.7286C28.912 27.4107 29.8714 28.3701 29.8714 29.5537C29.8714 30.7371 28.912 31.6966 27.7286 31.6966H20.5857C19.4023 31.6966 18.4429 30.7371 18.4429 29.5537ZM16.2277 27.4453C16.9155 26.4823 16.6925 25.1439 15.7295 24.4561C14.7664 23.7682 13.4281 23.9912 12.7402 24.9543L10.2205 28.4818L9.61523 27.8765C8.7784 27.0397 7.42163 27.0397 6.58477 27.8765C5.74794 28.7134 5.74794 30.07 6.58477 30.9069L8.97874 33.3009C9.42417 33.7463 10.043 33.9731 10.6707 33.9211C11.2985 33.8694 11.8716 33.5437 12.2377 33.0311L16.2277 27.4453Z" fill="#FF6600"/>
</svg>
