<svg width="40" height="40" viewBox="0 0 40 40" fill="none" xmlns="http://www.w3.org/2000/svg">
<path fill-rule="evenodd" clip-rule="evenodd" d="M6.33759 0C4.41528 0 2.85693 1.55835 2.85693 3.48066V16.5397C2.85693 18.4621 4.41528 20.0204 6.33759 20.0204H33.6621C35.5844 20.0204 37.1426 18.4621 37.1426 16.5397V3.48066C37.1426 1.55835 35.5844 0 33.6621 0H6.33759ZM14.0594 26.9752C14.0594 29.2494 12.2158 31.0931 9.94145 31.0931C7.6671 31.0931 5.82342 29.2494 5.82342 26.9752C5.82342 24.7009 7.6671 22.8571 9.94145 22.8571C12.2158 22.8571 14.0594 24.7009 14.0594 26.9752ZM30.0724 31.0931C32.3466 31.0931 34.1904 29.2494 34.1904 26.9752C34.1904 24.7009 32.3466 22.8571 30.0724 22.8571C27.798 22.8571 25.9543 24.7009 25.9543 26.9752C25.9543 29.2494 27.798 31.0931 30.0724 31.0931ZM9.94119 33.3171C6.63373 33.3171 3.88839 35.7237 3.36093 38.8814C3.25973 39.4871 3.76731 39.9889 4.38142 39.9889H15.501C16.1151 39.9889 16.6226 39.4871 16.5215 38.8814C15.994 35.7237 13.2487 33.3171 9.94119 33.3171ZM23.492 38.8814C24.0195 35.7237 26.7649 33.3171 30.0724 33.3171C33.3798 33.3171 36.1252 35.7237 36.6526 38.8814C36.7538 39.4871 36.2464 39.9889 35.6321 39.9889H24.5126C23.8984 39.9889 23.3909 39.4871 23.492 38.8814ZM23.2096 6.06137C23.2096 7.834 21.7726 9.27103 20 9.27103C18.2273 9.27103 16.7903 7.834 16.7903 6.06137C16.7903 4.28871 18.2273 2.85172 20 2.85172C21.7726 2.85172 23.2096 4.28871 23.2096 6.06137ZM14.3568 16.1629C14.8092 13.455 17.1634 11.3911 19.9998 11.3911C22.8361 11.3911 25.1904 13.455 25.6427 16.1629C25.7295 16.6823 25.2942 17.1125 24.7676 17.1125H15.232C14.7053 17.1125 14.27 16.6823 14.3568 16.1629Z" fill="#FF6600"/>
</svg>
