<svg width="41" height="40" viewBox="0 0 41 40" fill="none" xmlns="http://www.w3.org/2000/svg">
<g clip-path="url(#clip0_15993_6909)">
<path fill-rule="evenodd" clip-rule="evenodd" d="M10.5 11.4286C13.6559 11.4286 16.2143 8.8702 16.2143 5.71429C16.2143 2.55837 13.6559 0 10.5 0C7.34409 0 4.78571 2.55837 4.78571 5.71429C4.78571 8.8702 7.34409 11.4286 10.5 11.4286ZM16.3426 28.5714V28.4871C16.3426 25.6579 17.9048 23.1936 20.2136 21.9096C19.7824 20.1469 18.8755 18.5191 17.5711 17.2147C15.6957 15.3393 13.1522 14.2857 10.5 14.2857C7.84783 14.2857 5.30429 15.3393 3.42894 17.2147C1.55357 19.09 0.5 21.6335 0.5 24.2857V27.1429C0.5 27.9318 1.13959 28.5714 1.92857 28.5714H4.78571L6.05786 38.7486C6.14723 39.4634 6.75494 40 7.4754 40H13.5246C14.2451 40 14.8528 39.4634 14.9421 38.7486L16.2143 28.5714H16.3426ZM28.8629 21.9636C28.4684 21.9636 28.1486 22.2834 28.1486 22.6779V24.5375H32.1846V22.6779C32.1846 22.2834 31.8646 21.9636 31.4703 21.9636H28.8629ZM23.8629 22.6779V24.5375C21.6819 24.538 19.9141 26.3061 19.9141 28.4871V36.0503C19.9141 38.2314 21.6824 39.9997 23.8637 39.9997H36.4689C38.65 39.9997 40.4183 38.2314 40.4183 36.0503V28.4871C40.4183 26.3063 38.6509 24.5383 36.4703 24.5375V22.6779C36.4703 19.9165 34.2317 17.6779 31.4703 17.6779H28.8629C26.1014 17.6779 23.8629 19.9165 23.8629 22.6779Z" fill="#FF6600"/>
</g>
<defs>
<clipPath id="clip0_15993_6909">
<rect width="40" height="40" fill="white" transform="translate(0.5)"/>
</clipPath>
</defs>
</svg>
