<svg xmlns="http://www.w3.org/2000/svg" width="40" height="40" viewBox="0 0 40 40" fill="none">
<path fill-rule="evenodd" clip-rule="evenodd" d="M6.95262 5.28661C5 7.23923 5 10.3819 5 16.6673V23.334C5 29.6194 5 32.7621 6.95262 34.7147C8.90524 36.6673 12.0479 36.6673 18.3333 36.6673H21.6667C27.9521 36.6673 31.0948 36.6673 33.0474 34.7147C35 32.7621 35 29.6194 35 23.334V16.6673C35 10.3819 35 7.23923 33.0474 5.28661C31.0948 3.33398 27.9521 3.33398 21.6667 3.33398H18.3333C12.0479 3.33398 8.90524 3.33398 6.95262 5.28661ZM12.0833 13.334C12.0833 12.6436 12.643 12.084 13.3333 12.084H26.6667C27.357 12.084 27.9167 12.6436 27.9167 13.334C27.9167 14.0243 27.357 14.584 26.6667 14.584H13.3333C12.643 14.584 12.0833 14.0243 12.0833 13.334ZM12.0833 20.0007C12.0833 19.3103 12.643 18.7507 13.3333 18.7507H26.6667C27.357 18.7507 27.9167 19.3103 27.9167 20.0007C27.9167 20.691 27.357 21.2507 26.6667 21.2507H13.3333C12.643 21.2507 12.0833 20.691 12.0833 20.0007ZM13.3333 25.4173C12.643 25.4173 12.0833 25.977 12.0833 26.6673C12.0833 27.3577 12.643 27.9173 13.3333 27.9173H21.6667C22.357 27.9173 22.9167 27.3577 22.9167 26.6673C22.9167 25.977 22.357 25.4173 21.6667 25.4173H13.3333Z" fill="#2A254D"/>
</svg>