<svg xmlns="http://www.w3.org/2000/svg" width="41" height="40" viewBox="0 0 41 40" fill="none">
<path fill-rule="evenodd" clip-rule="evenodd" d="M7.45262 5.28661C5.5 7.23923 5.5 10.3819 5.5 16.6673V23.334C5.5 29.6194 5.5 32.7621 7.45262 34.7147C9.40524 36.6673 12.5479 36.6673 18.8333 36.6673H22.1667C28.4521 36.6673 31.5948 36.6673 33.5474 34.7147C35.5 32.7621 35.5 29.6194 35.5 23.334V16.6673C35.5 10.3819 35.5 7.23923 33.5474 5.28661C31.5948 3.33398 28.4521 3.33398 22.1667 3.33398H18.8333C12.5479 3.33398 9.40524 3.33398 7.45262 5.28661ZM12.5833 13.334C12.5833 12.6436 13.143 12.084 13.8333 12.084H27.1667C27.857 12.084 28.4167 12.6436 28.4167 13.334C28.4167 14.0243 27.857 14.584 27.1667 14.584H13.8333C13.143 14.584 12.5833 14.0243 12.5833 13.334ZM12.5833 20.0007C12.5833 19.3103 13.143 18.7507 13.8333 18.7507H27.1667C27.857 18.7507 28.4167 19.3103 28.4167 20.0007C28.4167 20.691 27.857 21.2507 27.1667 21.2507H13.8333C13.143 21.2507 12.5833 20.691 12.5833 20.0007ZM13.8333 25.4173C13.143 25.4173 12.5833 25.977 12.5833 26.6673C12.5833 27.3577 13.143 27.9173 13.8333 27.9173H22.1667C22.857 27.9173 23.4167 27.3577 23.4167 26.6673C23.4167 25.977 22.857 25.4173 22.1667 25.4173H13.8333Z" fill="#FF6600"/>
</svg>