<svg xmlns="http://www.w3.org/2000/svg" width="50" height="50" viewBox="0 0 50 50" fill="none">
<path d="M41.666 16.2285V12.4993C41.666 5.83268 39.9993 4.16602 33.3327 4.16602H12.4993C5.83268 4.16602 4.16602 5.83268 4.16602 12.4993V24.3744C4.16602 31.041 5.83268 32.7077 12.4993 32.7077H25.041V22.0619M41.666 16.2285C41.1452 16.166 40.541 16.1243 39.8952 16.1243H30.9785C26.5202 16.1243 25.041 17.6036 25.041 22.0619M41.666 16.2285C44.7493 16.6243 45.8327 18.2494 45.8327 22.0619V39.8952C45.8327 44.3536 44.3535 45.8327 39.8952 45.8327H30.9785C26.5202 45.8327 25.041 44.3536 25.041 39.8952V22.0619M18.7493 32.7077V41.666M4.16602 24.7911H24.9993M12.3952 41.666H24.9993M37.666 24.291C37.666 25.5221 36.668 26.5201 35.4369 26.5201C34.2057 26.5201 33.2077 25.5221 33.2077 24.291C33.2077 23.0598 34.2057 22.0619 35.4369 22.0619C36.668 22.0619 37.666 23.0598 37.666 24.291ZM35.4369 39.8952C32.9785 39.8952 30.9785 37.8952 30.9785 35.4369C30.9785 34.416 31.3327 33.4577 31.916 32.7077C32.7285 31.666 33.9994 30.9785 35.4369 30.9785C36.5619 30.9785 37.5827 31.3952 38.3535 32.0619C39.291 32.8952 39.8952 34.1035 39.8952 35.4369C39.8952 37.8952 37.8952 39.8952 35.4369 39.8952Z" stroke="#FF6600" stroke-width="1.5" stroke-miterlimit="10" stroke-linecap="round" stroke-linejoin="round"/>
</svg>