<svg width="50" height="50" viewBox="0 0 50 50" fill="none" xmlns="http://www.w3.org/2000/svg">
<path d="M35.3542 30.0827C38.2083 30.5619 41.3542 30.0619 43.5625 28.5827C46.5 26.6244 46.5 23.416 43.5625 21.4577C41.3333 19.9785 38.1458 19.4785 35.2917 19.9785M14.5833 30.0827C11.7292 30.5619 8.58333 30.0619 6.375 28.5827C3.4375 26.6244 3.4375 23.416 6.375 21.4577C8.60417 19.9785 11.7917 19.4785 14.6458 19.9785M37.5 14.916C37.375 14.8952 37.2292 14.8952 37.1042 14.916C34.2292 14.8119 31.9375 12.4577 31.9375 9.54102C31.9375 6.56185 34.3333 4.16602 37.3125 4.16602C40.2917 4.16602 42.6875 6.58269 42.6875 9.54102C42.6667 12.4577 40.375 14.8119 37.5 14.916ZM12.4375 14.916C12.5625 14.8952 12.7083 14.8952 12.8333 14.916C15.7083 14.8119 18 12.4577 18 9.54102C18 6.56185 15.6042 4.16602 12.625 4.16602C9.64583 4.16602 7.24999 6.58269 7.24999 9.54102C7.27083 12.4577 9.5625 14.8119 12.4375 14.916ZM25 30.4785C24.875 30.4577 24.7292 30.4577 24.6042 30.4785C21.7292 30.3744 19.4375 28.0202 19.4375 25.1035C19.4375 22.1244 21.8333 19.7285 24.8125 19.7285C27.7917 19.7285 30.1875 22.1452 30.1875 25.1035C30.1667 28.0202 27.875 30.3952 25 30.4785ZM18.9375 37.041C16 38.9993 16 42.2077 18.9375 44.166C22.2708 46.3952 27.7292 46.3952 31.0625 44.166C34 42.2077 34 38.9993 31.0625 37.041C27.75 34.8327 22.2708 34.8327 18.9375 37.041Z" stroke="#FF6600" stroke-width="1.5" stroke-linecap="round" stroke-linejoin="round"/>
</svg>
