<svg xmlns="http://www.w3.org/2000/svg" width="50" height="50" viewBox="0 0 50 50" fill="none">
<path d="M37.5 39.291H35.9166C34.25 39.291 32.6667 39.9368 31.5 41.1035L27.9374 44.6243C26.3124 46.2285 23.6667 46.2285 22.0417 44.6243L18.4792 41.1035C17.3125 39.9368 15.7083 39.291 14.0625 39.291H12.5C9.04167 39.291 6.25 36.5202 6.25 33.1035V10.3535C6.25 6.93685 9.04167 4.16602 12.5 4.16602H37.5C40.9583 4.16602 43.75 6.93685 43.75 10.3535V33.0827C43.75 36.4993 40.9583 39.291 37.5 39.291Z" stroke="#FF6600" stroke-width="1.5" stroke-linecap="round" stroke-linejoin="round"/>
<path d="M25.1458 18.6452C25.0625 18.6452 24.9375 18.6452 24.8333 18.6452C22.6458 18.5618 20.9166 16.791 20.9166 14.5827C20.9166 12.3327 22.7291 10.5202 24.9791 10.5202C27.2291 10.5202 29.0417 12.3535 29.0417 14.5827C29.0625 16.791 27.3333 18.5827 25.1458 18.6452Z" stroke="#FF6600" stroke-width="1.5" stroke-linecap="round" stroke-linejoin="round"/>
<path d="M19.2708 24.916C16.5 26.7702 16.5 29.791 19.2708 31.6452C22.4167 33.7493 27.5833 33.7493 30.7292 31.6452C33.5 29.791 33.5 26.7702 30.7292 24.916C27.5833 22.8327 22.4375 22.8327 19.2708 24.916Z" stroke="#FF6600" stroke-width="1.5" stroke-linecap="round" stroke-linejoin="round"/>
</svg>