<svg xmlns="http://www.w3.org/2000/svg" width="41" height="40" viewBox="0 0 41 40" fill="none">
<path fill-rule="evenodd" clip-rule="evenodd" d="M20.5863 2.08399H20.413C18.9156 2.08394 17.6668 2.0839 16.6755 2.21718C15.6292 2.35785 14.6846 2.6673 13.9254 3.42642C13.1663 4.18553 12.8569 5.1302 12.7162 6.17652C12.5829 7.16782 12.583 8.41651 12.583 9.91396V10.0435C12.2956 10.0529 12.018 10.0644 11.7497 10.0784V23.7507L17.2238 23.7507C17.5656 23.7505 17.9353 23.7504 18.2473 23.7923C18.6129 23.8415 19.0798 23.9679 19.4728 24.3609C19.8658 24.7539 19.9922 25.2209 20.0414 25.5864C20.0833 25.8984 20.0832 26.2681 20.0831 26.6099V28.3914C20.0832 28.7333 20.0833 29.1029 20.0414 29.415C19.9922 29.7805 19.8658 30.2475 19.4728 30.6405C19.0798 31.0335 18.6129 31.1599 18.2473 31.209C17.9353 31.251 17.5657 31.2508 17.2238 31.2507L11.7497 31.2507V36.5896C13.2407 36.6673 15.0203 36.6673 17.1663 36.6673H23.833C25.979 36.6673 27.7587 36.6673 29.2497 36.5896V10.0784C28.9814 10.0644 28.7038 10.0529 28.4163 10.0435V9.914C28.4164 8.41655 28.4164 7.16782 28.2832 6.17652C28.1425 5.1302 27.833 4.18553 27.0739 3.42642C26.3148 2.6673 25.3701 2.35785 24.3238 2.21718C23.3325 2.0839 22.0838 2.08394 20.5863 2.08399ZM25.9163 10.0038V10.0007C25.9163 8.39397 25.9137 7.3147 25.8055 6.50964C25.7021 5.74054 25.5233 5.41138 25.3062 5.19418C25.089 4.97699 24.7598 4.79829 23.9907 4.69488C23.1856 4.58664 22.1064 4.58399 20.4997 4.58399C18.893 4.58399 17.8137 4.58664 17.0087 4.69488C16.2396 4.79829 15.9104 4.97699 15.6932 5.19418C15.476 5.41138 15.2973 5.74054 15.1939 6.50964C15.0857 7.3147 15.083 8.39397 15.083 10.0007V10.0038C15.7364 10.0007 16.4298 10.0007 17.1663 10.0007H23.833C24.5696 10.0007 25.263 10.0007 25.9163 10.0038Z" fill="#FF6600"/>
<path d="M35.2137 34.7147C34.349 35.5794 33.2508 36.0612 31.7497 36.3296V10.3383C33.2508 10.6068 34.349 11.0885 35.2137 11.9533C37.1663 13.9059 37.1663 17.0486 37.1663 23.334C37.1663 29.6194 37.1663 32.7621 35.2137 34.7147Z" fill="#FF6600"/>
<path d="M5.78563 11.9533C6.65037 11.0885 7.74852 10.6068 9.24967 10.3383V23.82C8.91608 23.8849 8.52784 24.0263 8.19323 24.3609C7.80023 24.7539 7.67384 25.2209 7.62469 25.5864C7.58274 25.8984 7.58289 26.2681 7.58302 26.6099V28.3914C7.58289 28.7333 7.58274 29.1029 7.62469 29.415C7.67384 29.7805 7.80023 30.2475 8.19323 30.6405C8.52784 30.9751 8.91608 31.1164 9.24967 31.1814V36.3296C7.74852 36.0612 6.65037 35.5794 5.78563 34.7147C3.83301 32.7621 3.83301 29.6194 3.83301 23.334C3.83301 17.0486 3.83301 13.9059 5.78563 11.9533Z" fill="#FF6600"/>
<path d="M10.085 26.2526C10.0831 26.3684 10.083 26.5022 10.083 26.6673V28.334C10.083 28.4991 10.0831 28.633 10.085 28.7488C10.2007 28.7506 10.3346 28.7507 10.4997 28.7507H17.1664C17.3315 28.7507 17.4654 28.7506 17.5811 28.7488C17.583 28.633 17.583 28.4991 17.583 28.334V26.6673C17.583 26.5022 17.583 26.3684 17.5811 26.2526C17.4654 26.2507 17.3315 26.2507 17.1664 26.2507H10.4997C10.3346 26.2507 10.2007 26.2507 10.085 26.2526Z" fill="#FF6600"/>
</svg>