<svg width="26" height="26" viewBox="0 0 26 26" fill="none" xmlns="http://www.w3.org/2000/svg">
<g id="Home 05">
<rect x="1" y="1" width="24" height="24" stroke="white"/>
<path id="Icon" d="M21.3812 11.875L19.75 10.2449V6.25C19.75 5.63125 19.2438 5.125 18.625 5.125H17.5C16.8812 5.125 16.375 5.63125 16.375 6.25V6.87212L14.125 4.62438C13.8179 4.33413 13.5366 4 13 4C12.4634 4 12.1821 4.33413 11.875 4.62438L4.61875 11.875C4.26775 12.2406 4 12.5073 4 13C4 13.6334 4.486 14.125 5.125 14.125H6.25V20.875C6.25 21.4938 6.75625 22 7.375 22H9.625C10.2463 22 10.75 21.4963 10.75 20.875V16.375C10.75 15.7562 11.2562 15.25 11.875 15.25H14.125C14.7438 15.25 15.25 15.7562 15.25 16.375V20.875C15.25 21.4963 15.1912 22 15.8125 22H18.625C19.2438 22 19.75 21.4938 19.75 20.875V14.125H20.875C21.514 14.125 22 13.6334 22 13C22 12.5073 21.7322 12.2406 21.3812 11.875Z" stroke="#FF6600" stroke-width="2" stroke-linejoin="round"/>
</g>
</svg>
