<svg width="24" height="24" viewBox="0 0 24 24" fill="none" xmlns="http://www.w3.org/2000/svg">
<g id="Teacher">
<path id="icon" d="M5.63002 13.0793L5.62002 17.7693C5.62002 19.0393 6.60002 20.3993 7.80002 20.7993L10.99 21.8593C11.54 22.0393 12.45 22.0393 13.01 21.8593L16.2 20.7993C17.4 20.3993 18.38 19.0393 18.38 17.7693V13.1293M21.4 14.9993V8.9993M10.05 2.5293L4.03002 6.4593C2.10002 7.7193 2.10002 10.5393 4.03002 11.7993L10.05 15.7293C11.13 16.4393 12.91 16.4393 13.99 15.7293L19.98 11.7993C21.9 10.5393 21.9 7.7293 19.98 6.4693L13.99 2.5393C12.91 1.8193 11.13 1.8193 10.05 2.5293Z" stroke="#292D32" stroke-width="1.5" stroke-linecap="round" stroke-linejoin="round"/>
</g>
</svg>
