<svg width="192" height="40" viewBox="0 0 192 40" fill="none" xmlns="http://www.w3.org/2000/svg">
<rect width="192" height="40" fill="white"/>
<path d="M13.4112 21.9118V31.0392H22.5402V21.9118H13.4112ZM2 31.0392H11.129V21.9118H6.5645H2V31.0392ZM2 10.5006V19.6296H11.129V10.5006H2ZM17.5818 9L11.129 15.4575L17.5818 21.9118L24.0345 15.4575L17.5818 9Z" fill="#FF6600"/>
<path d="M41.6591 10C42.0733 10 42.4021 10.1355 42.6431 10.4016C42.8891 10.6627 43.0146 11.0015 43.0146 11.4157V22.7614C43.0146 24.3227 42.6682 25.7234 41.9804 26.9684C41.2901 28.2084 40.3388 29.1773 39.1289 29.8801C37.9165 30.578 36.5535 30.9244 35.0424 30.9244C33.5012 30.9244 32.1206 30.578 30.8957 29.8801C29.6758 29.1773 28.7219 28.2084 28.0342 26.9684C27.3439 25.7234 27 24.3227 27 22.7614V11.4157C27 11.0015 27.1355 10.6627 27.4117 10.4016C27.6928 10.1355 28.0467 10 28.476 10C28.85 10 29.1813 10.1381 29.47 10.4117C29.7561 10.6878 29.9017 11.0216 29.9017 11.4157V22.7614C29.9017 23.7856 30.1351 24.7093 30.6045 25.5326C31.0789 26.3509 31.709 26.986 32.4921 27.4403C33.2803 27.8896 34.1313 28.113 35.0424 28.113C35.9862 28.113 36.8598 27.8896 37.663 27.4403C38.4712 26.986 39.1189 26.3509 39.6008 25.5326C40.0878 24.7093 40.3338 23.7856 40.3338 22.7614V11.4157C40.3338 11.0015 40.4492 10.6627 40.6852 10.4016C40.9186 10.1355 41.2424 10 41.6591 10Z" fill="black"/>
<path d="M53.8918 15C57.4311 15 59.2032 17.1261 59.2032 21.3757V29.4181C59.2032 29.8147 59.0677 30.1486 58.8016 30.4222C58.5406 30.6983 58.2017 30.8338 57.7875 30.8338C57.3909 30.8338 57.0596 30.6983 56.7935 30.4222C56.5325 30.1486 56.4019 29.8147 56.4019 29.4181V21.4058C56.4019 20.2487 56.1334 19.3249 55.5987 18.6347C55.0691 17.9469 54.2031 17.6005 52.9982 17.6005C52.2151 17.6005 51.5022 17.7762 50.8596 18.1226C50.217 18.464 49.715 18.9258 49.3535 19.5082C48.9921 20.0855 48.8113 20.7181 48.8113 21.4058V29.4181C48.8113 29.8147 48.6758 30.1486 48.4097 30.4222C48.1411 30.6983 47.7998 30.8338 47.3856 30.8338C46.9689 30.8338 46.6351 30.7033 46.3815 30.4423C46.1255 30.1762 46 29.8348 46 29.4181V16.7671C46 16.373 46.1305 16.0392 46.3916 15.7631C46.6577 15.4895 46.989 15.3514 47.3856 15.3514C47.7998 15.3514 48.1411 15.4895 48.4097 15.7631C48.6758 16.0392 48.8113 16.373 48.8113 16.7671V17.8013C49.3184 17.0131 50.0313 16.3504 50.95 15.8133C51.8661 15.2711 52.8476 15 53.8918 15Z" fill="black"/>
<path d="M69.7713 15.0343C71.1092 15.0343 72.3216 15.3807 73.406 16.0685C74.4904 16.7588 75.3388 17.7126 75.9563 18.93C76.5788 20.15 76.89 21.528 76.89 23.0667C76.89 24.6079 76.5788 25.996 75.9563 27.2335C75.3388 28.4735 74.4904 29.4374 73.406 30.1252C72.3216 30.8155 71.1293 31.1593 69.8316 31.1593C68.8074 31.1593 67.8486 30.9334 66.96 30.4866C66.0764 30.0323 65.3585 29.47 64.8113 28.7998V29.6533C64.8113 30.0499 64.6758 30.3862 64.4097 30.6674C64.1411 30.941 63.7998 31.079 63.3856 31.079C62.989 31.079 62.6577 30.9435 62.3916 30.6774C62.1305 30.4113 62 30.0699 62 29.6533V10.4157C62 10.0091 62.1255 9.6702 62.3815 9.40162C62.6351 9.13555 62.9689 9 63.3856 9C63.7998 9 64.1411 9.14057 64.4097 9.4217C64.6758 9.69781 64.8113 10.0291 64.8113 10.4157V17.6348C65.2782 16.927 65.966 16.317 66.8696 15.8074C67.7783 15.2929 68.7472 15.0343 69.7713 15.0343ZM69.45 28.5589C70.3537 28.5589 71.1695 28.3179 71.8999 27.8359C72.6278 27.354 73.1951 26.6963 73.5968 25.858C73.9984 25.0221 74.1992 24.0908 74.1992 23.0667C74.1992 22.0426 73.9984 21.1189 73.5968 20.2955C73.1951 19.4672 72.6278 18.8171 71.8999 18.3477C71.1695 17.8733 70.3537 17.6348 69.45 17.6348C68.5188 17.6348 67.6879 17.8733 66.96 18.3477C66.2296 18.8171 65.6648 19.4597 65.2632 20.2755C64.8615 21.0938 64.6607 22.0225 64.6607 23.0667C64.6607 24.1109 64.8615 25.0497 65.2632 25.878C65.6648 26.7014 66.2296 27.354 66.96 27.8359C67.6879 28.3179 68.5188 28.5589 69.45 28.5589Z" fill="black"/>
<path d="M95.6029 23.0926C95.6029 24.6263 95.2565 26.0044 94.5687 27.2293C93.8785 28.4492 92.9372 29.4031 91.7474 30.0908C90.5551 30.7811 89.2398 31.125 87.8015 31.125C86.3606 31.125 85.0453 30.7811 83.8555 30.0908C82.6632 29.4031 81.7219 28.4492 81.0342 27.2293C80.3439 26.0044 80 24.6263 80 23.0926C80 21.5539 80.3439 20.1658 81.0342 18.9258C81.7219 17.6883 82.6632 16.7245 83.8555 16.0342C85.0453 15.3464 86.3606 15 87.8015 15C89.2398 15 90.5551 15.3464 91.7474 16.0342C92.9372 16.7245 93.8785 17.6883 94.5687 18.9258C95.2565 20.1658 95.6029 21.5539 95.6029 23.0926ZM92.7916 23.0926C92.7916 22.0283 92.5707 21.0795 92.1289 20.2411C91.6871 19.4053 91.0847 18.7551 90.3216 18.2933C89.5636 17.8314 88.7252 17.6005 87.8015 17.6005C86.8702 17.6005 86.0268 17.8314 85.2713 18.2933C84.5132 18.7551 83.9108 19.4053 83.464 20.2411C83.0222 21.0795 82.8013 22.0283 82.8013 23.0926C82.8013 24.1368 83.0222 25.0756 83.464 25.904C83.9108 26.7273 84.5132 27.3699 85.2713 27.8317C86.0268 28.2936 86.8702 28.5245 87.8015 28.5245C88.7252 28.5245 89.5636 28.2936 90.3216 27.8317C91.0847 27.3699 91.6871 26.7273 92.1289 25.904C92.5707 25.0756 92.7916 24.1368 92.7916 23.0926Z" fill="black"/>
<path d="M111.671 28.384C111.892 28.6249 112.002 28.9036 112.002 29.2173C112.002 29.6064 111.852 29.9453 111.551 30.2314C111.254 30.5201 110.931 30.6631 110.577 30.6631C110.127 30.6631 109.746 30.4573 109.432 30.0406L105.466 25.0505L101.57 30.0406C101.43 30.2364 101.259 30.382 101.058 30.4824C100.863 30.5828 100.659 30.633 100.446 30.633C100.109 30.633 99.7982 30.51 99.5121 30.2615C99.2309 30.0155 99.0904 29.7244 99.0904 29.388C99.0904 29.0341 99.1958 28.7404 99.4117 28.5044L103.84 22.9822L99.2912 17.2491C99.0954 16.988 99 16.7119 99 16.4157C99 16.0216 99.1406 15.6878 99.4217 15.4117C99.7079 15.1381 100.039 15 100.416 15C100.89 15 101.274 15.1983 101.57 15.5924L105.617 20.703L109.432 15.6225C109.726 15.2083 110.097 15 110.547 15C110.921 15 111.234 15.1255 111.49 15.3715C111.751 15.62 111.882 15.9112 111.882 16.245C111.882 16.6215 111.771 16.9253 111.551 17.1587L107.183 22.681L111.671 28.384Z" fill="black"/>
<path d="M130.723 28.354C130.937 28.6301 131.045 28.9539 131.045 29.3279C131.045 29.7572 130.879 30.1111 130.553 30.3922C130.231 30.6683 129.862 30.8039 129.448 30.8039C129.059 30.8039 128.715 30.6282 128.414 30.2717L121.235 21.0244L117.932 24.1571V29.2978C117.932 29.7145 117.791 30.0584 117.51 30.332C117.234 30.6081 116.88 30.7436 116.446 30.7436C116.017 30.7436 115.668 30.6081 115.402 30.332C115.133 30.0584 115 29.7145 115 29.2978V11.476C115 11.0819 115.136 10.748 115.412 10.4719C115.693 10.1983 116.047 10.0602 116.476 10.0602C116.91 10.0602 117.262 10.1958 117.53 10.4619C117.796 10.7229 117.932 11.0618 117.932 11.476V20.663L128.414 10.502C128.788 10.1682 129.162 10 129.539 10C129.893 10 130.196 10.1481 130.452 10.4418C130.713 10.738 130.844 11.0517 130.844 11.3856C130.844 11.6818 130.706 11.988 130.432 12.3093L123.424 18.926L130.723 28.354Z" fill="#FF6600"/>
<path d="M136.811 29.4525C136.811 29.8491 136.673 30.1829 136.4 30.4565C136.124 30.7326 135.79 30.8682 135.396 30.8682C134.999 30.8682 134.668 30.7326 134.402 30.4565C134.133 30.1829 134 29.8491 134 29.4525V10.4157C134 10.0291 134.136 9.69781 134.412 9.4217C134.693 9.14057 135.029 9 135.426 9C135.82 9 136.149 9.14057 136.41 9.4217C136.676 9.69781 136.811 10.0291 136.811 10.4157V29.4525Z" fill="#FF6600"/>
<path d="M155.603 23.0926C155.603 24.6263 155.257 26.0044 154.569 27.2293C153.878 28.4492 152.937 29.4031 151.747 30.0908C150.555 30.7811 149.24 31.125 147.801 31.125C146.361 31.125 145.045 30.7811 143.856 30.0908C142.663 29.4031 141.722 28.4492 141.034 27.2293C140.344 26.0044 140 24.6263 140 23.0926C140 21.5539 140.344 20.1658 141.034 18.9258C141.722 17.6883 142.663 16.7245 143.856 16.0342C145.045 15.3464 146.361 15 147.801 15C149.24 15 150.555 15.3464 151.747 16.0342C152.937 16.7245 153.878 17.6883 154.569 18.9258C155.257 20.1658 155.603 21.5539 155.603 23.0926ZM152.792 23.0926C152.792 22.0283 152.571 21.0795 152.129 20.2411C151.687 19.4053 151.085 18.7551 150.322 18.2933C149.564 17.8314 148.725 17.6005 147.801 17.6005C146.87 17.6005 146.027 17.8314 145.271 18.2933C144.513 18.7551 143.911 19.4053 143.464 20.2411C143.022 21.0795 142.801 22.0283 142.801 23.0926C142.801 24.1368 143.022 25.0756 143.464 25.904C143.911 26.7273 144.513 27.3699 145.271 27.8317C146.027 28.2936 146.87 28.5245 147.801 28.5245C148.725 28.5245 149.564 28.2936 150.322 27.8317C151.085 27.3699 151.687 26.7273 152.129 25.904C152.571 25.0756 152.792 24.1368 152.792 23.0926Z" fill="#FF6600"/>
<path d="M170.526 15C170.941 15 171.28 15.1381 171.541 15.4117C171.807 15.6878 171.942 16.0216 171.942 16.4157V24.2774C171.942 26.3257 171.375 27.9171 170.245 29.0466C169.113 30.1787 167.514 30.7435 165.446 30.7435C163.39 30.7435 161.801 30.1787 160.677 29.0466C159.557 27.9171 159 26.3257 159 24.2774V16.4157C159 16.0216 159.131 15.6878 159.392 15.4117C159.658 15.1381 159.989 15 160.386 15C160.8 15 161.141 15.1381 161.41 15.4117C161.676 15.6878 161.811 16.0216 161.811 16.4157V24.2774C161.811 26.8628 163.021 28.153 165.446 28.153C166.643 28.153 167.557 27.8292 168.187 27.1791C168.815 26.524 169.131 25.5576 169.131 24.2774V16.4157C169.131 16.0216 169.264 15.6878 169.532 15.4117C169.799 15.1381 170.13 15 170.526 15Z" fill="#FF6600"/>
<path d="M188.504 9C188.919 9 189.257 9.13555 189.519 9.40162C189.785 9.6702 189.92 10.0091 189.92 10.4157V29.4525C189.92 29.8491 189.785 30.1829 189.519 30.4565C189.257 30.7326 188.919 30.8682 188.504 30.8682C188.088 30.8682 187.751 30.7376 187.49 30.4766C187.234 30.2105 187.109 29.8691 187.109 29.4525V28.6191C186.619 29.3295 185.927 29.9319 185.03 30.4264C184.132 30.9133 183.173 31.1593 182.149 31.1593C180.808 31.1593 179.599 30.8155 178.514 30.1252C177.43 29.4374 176.571 28.4785 175.944 27.2536C175.314 26.0236 175 24.638 175 23.0968C175 21.5581 175.306 20.1751 175.924 18.9501C176.546 17.7202 177.4 16.7588 178.484 16.0685C179.568 15.3807 180.758 15.0343 182.058 15.0343C183.103 15.0343 184.067 15.2527 184.95 15.687C185.839 16.1162 186.559 16.6759 187.109 17.3637V10.4157C187.109 10.0091 187.234 9.6702 187.49 9.40162C187.751 9.13555 188.088 9 188.504 9ZM182.47 28.5589C183.399 28.5589 184.222 28.3254 184.94 27.856C185.663 27.3816 186.225 26.7315 186.627 25.9082C187.028 25.0798 187.229 24.141 187.229 23.0968C187.229 22.0727 187.028 21.144 186.627 20.3056C186.225 19.4697 185.663 18.8171 184.94 18.3477C184.222 17.8733 183.399 17.6348 182.47 17.6348C181.546 17.6348 180.723 17.8733 180 18.3477C179.282 18.8171 178.725 19.4697 178.323 20.3056C177.922 21.144 177.721 22.0727 177.721 23.0968C177.721 24.141 177.922 25.0798 178.323 25.9082C178.725 26.7315 179.282 27.3816 180 27.856C180.723 28.3254 181.546 28.5589 182.47 28.5589Z" fill="#FF6600"/>
</svg>
