<svg xmlns="http://www.w3.org/2000/svg" width="40" height="40" viewBox="0 0 40 40" fill="none">
<g clip-path="url(#clip0_15815_1394)">
<path fill-rule="evenodd" clip-rule="evenodd" d="M9.09521 28.088V26.6852C9.09521 22.0735 9.09521 19.7676 10.362 18.2156C10.5939 17.9315 10.8531 17.6709 11.1356 17.4378C12.6793 16.1641 14.9727 16.1641 19.5595 16.1641C24.1463 16.1641 26.4397 16.1641 27.9834 17.4378C28.2659 17.6709 28.5251 17.9315 28.757 18.2156C29.7358 19.4148 29.9583 21.0642 30.0089 23.8796L30.9424 23.4178C33.6573 22.0529 35.0148 21.3705 36.0074 21.9873C37 22.6041 37 24.13 37 27.182V27.5913C37 30.6432 37 32.1692 36.0074 32.786C35.0148 33.4028 33.6573 32.7203 30.9424 31.3555L30.0089 30.8937C29.9583 33.7091 29.7358 35.3584 28.757 36.5577C28.5251 36.8418 28.2659 37.1023 27.9834 37.3355C26.4397 38.6092 24.1463 38.6092 19.5595 38.6092C14.9727 38.6092 12.6793 38.6092 11.1356 37.3355C10.8531 37.1023 10.5939 36.8418 10.362 36.5577C9.09521 35.0057 9.09521 32.6998 9.09521 28.088ZM25.2251 23.9647C26.0424 23.1429 26.0424 21.8106 25.2251 20.9888C24.4078 20.1671 23.0827 20.1671 22.2653 20.9888C21.448 21.8106 21.448 23.1429 22.2653 23.9647C23.0827 24.7864 24.4078 24.7864 25.2251 23.9647Z" fill="#FF6600"/>
<path d="M16.7998 8.95V8.95C19.1194 6.6304 22.8802 6.6304 25.1998 8.95V8.95" stroke="#FF6600" stroke-width="2.1" stroke-linecap="round"/>
<path d="M14 6.15039V6.15039C17.866 2.2844 24.134 2.2844 28 6.15039V6.15039" stroke="#FF6600" stroke-width="2.1" stroke-linecap="round"/>
<circle cx="20.9999" cy="11.7504" r="2.1" fill="#FF6600"/>
</g>
<defs>
<clipPath id="clip0_15815_1394">
<rect width="40" height="40" fill="white"/>
</clipPath>
</defs>
</svg>