<svg xmlns="http://www.w3.org/2000/svg" width="50" height="50" viewBox="0 0 50 50" fill="none">
<path d="M7.10352 45.8327C7.10352 37.7702 15.1243 31.2493 24.9993 31.2493C26.9993 31.2493 28.9369 31.5202 30.7494 32.0202M34.2493 37.4993L36.3118 39.5618L40.7493 35.4577M35.416 14.5827C35.416 20.3356 30.7523 24.9993 24.9993 24.9993C19.2464 24.9993 14.5827 20.3356 14.5827 14.5827C14.5827 8.82972 19.2464 4.16602 24.9993 4.16602C30.7523 4.16602 35.416 8.82972 35.416 14.5827ZM45.8327 37.4993C45.8327 39.0618 45.3952 40.541 44.6244 41.791C44.1869 42.541 43.6244 43.2077 42.9785 43.7493C41.5202 45.0618 39.6035 45.8327 37.4993 45.8327C34.4577 45.8327 31.8118 44.2077 30.3743 41.791C29.6035 40.541 29.166 39.0618 29.166 37.4993C29.166 34.8743 30.3743 32.5202 32.291 30.9994C33.7285 29.8535 35.541 29.166 37.4993 29.166C42.1035 29.166 45.8327 32.8952 45.8327 37.4993Z" stroke="#FF6600" stroke-width="1.5" stroke-linecap="round" stroke-linejoin="round"/>
</svg>