<svg width="25" height="24" viewBox="0 0 25 24" fill="none" xmlns="http://www.w3.org/2000/svg">
<rect width="25" height="24" fill="#C0C0C0"/>
<g id="Home_Ahmer" clip-path="url(#clip0_3501_11419)">
<rect width="1512" height="10440" transform="translate(-1116 -1779)" fill="white"/>
<g id="Frame 2147223842">
<g id="Home">
<rect width="1512" height="824" transform="translate(-1116 -734)" fill="white"/>
<g id="Frame 2147224014">
<g id="Frame 2147223996">
<g id="Home_2">
<g clip-path="url(#clip1_3501_11419)">
<mask id="path-1-outside-1_3501_11419" maskUnits="userSpaceOnUse" x="-183" y="-449" width="314" height="519" fill="black">
<rect fill="white" x="-183" y="-449" width="314" height="519"/>
<path d="M-181 -431C-181 -439.837 -173.837 -447 -165 -447H113C121.837 -447 129 -439.837 129 -431V52C129 60.8365 121.837 68 113 68H-165C-173.837 68 -181 60.8365 -181 52V-431Z"/>
</mask>
<path d="M-181 -431C-181 -439.837 -173.837 -447 -165 -447H113C121.837 -447 129 -439.837 129 -431V52C129 60.8365 121.837 68 113 68H-165C-173.837 68 -181 60.8365 -181 52V-431Z" fill="url(#paint0_linear_3501_11419)"/>
<g id="Frame 2147223989">
<rect width="310" height="473" transform="translate(-181.5 -447)" fill="white"/>
</g>
<path id="Rectangle 740" d="M-181 -431C-181 -439.837 -173.837 -447 -165 -447H113C121.837 -447 129 -439.837 129 -431V68H-181V-431Z" fill="url(#paint1_linear_3501_11419)"/>
<g id="Primary Button">
<rect x="-149" y="-12" width="246" height="48" rx="8" fill="#FF6600"/>
<g id="Frame 2147223977">
<g id="Frame">
<path id="Vector" d="M16.5 8.4V16C16.5 16.2833 16.5958 16.5208 16.7875 16.7125C16.9792 16.9042 17.2167 17 17.5 17C17.7833 17 18.0208 16.9042 18.2125 16.7125C18.4042 16.5208 18.5 16.2833 18.5 16V6C18.5 5.71667 18.4042 5.47917 18.2125 5.2875C18.0208 5.09583 17.7833 5 17.5 5H7.5C7.21667 5 6.97917 5.09583 6.7875 5.2875C6.59583 5.47917 6.5 5.71667 6.5 6C6.5 6.28333 6.59583 6.52083 6.7875 6.7125C6.97917 6.90417 7.21667 7 7.5 7H15.1L6.2 15.9C6.01667 16.0833 5.925 16.3167 5.925 16.6C5.925 16.8833 6.01667 17.1167 6.2 17.3C6.38333 17.4833 6.61667 17.575 6.9 17.575C7.18333 17.575 7.41667 17.4833 7.6 17.3L16.5 8.4Z" fill="white"/>
</g>
</g>
</g>
</g>
<path d="M-165 -445H113V-449H-165V-445ZM127 -431V52H131V-431H127ZM113 66H-165V70H113V66ZM-179 52V-431H-183V52H-179ZM-165 66C-172.732 66 -179 59.732 -179 52H-183C-183 61.9411 -174.941 70 -165 70V66ZM127 52C127 59.732 120.732 66 113 66V70C122.941 70 131 61.9411 131 52H127ZM113 -445C120.732 -445 127 -438.732 127 -431H131C131 -440.941 122.941 -449 113 -449V-445ZM-165 -449C-174.941 -449 -183 -440.941 -183 -431H-179C-179 -438.732 -172.732 -445 -165 -445V-449Z" fill="#FFF0E6" mask="url(#path-1-outside-1_3501_11419)"/>
</g>
</g>
</g>
</g>
</g>
</g>
<defs>
<linearGradient id="paint0_linear_3501_11419" x1="-26" y1="-447" x2="-26" y2="68" gradientUnits="userSpaceOnUse">
<stop stop-color="#FBDAB8" stop-opacity="0.1"/>
<stop offset="1" stop-color="white"/>
</linearGradient>
<linearGradient id="paint1_linear_3501_11419" x1="-26" y1="-447" x2="-26" y2="-20.3955" gradientUnits="userSpaceOnUse">
<stop stop-color="#FEF7EE" stop-opacity="0.24"/>
<stop offset="1" stop-color="white"/>
</linearGradient>
<clipPath id="clip0_3501_11419">
<rect width="1512" height="10440" fill="white" transform="translate(-1116 -1779)"/>
</clipPath>
<clipPath id="clip1_3501_11419">
<path d="M-181 -431C-181 -439.837 -173.837 -447 -165 -447H113C121.837 -447 129 -439.837 129 -431V52C129 60.8365 121.837 68 113 68H-165C-173.837 68 -181 60.8365 -181 52V-431Z" fill="white"/>
</clipPath>
</defs>
</svg>
