<svg xmlns="http://www.w3.org/2000/svg" width="40" height="40" viewBox="0 0 40 40" fill="none">
<path fill-rule="evenodd" clip-rule="evenodd" d="M20.0868 2.08399H19.9135C18.4161 2.08394 17.1673 2.0839 16.176 2.21718C15.1297 2.35785 14.185 2.6673 13.4259 3.42642C12.6668 4.18553 12.3574 5.1302 12.2167 6.17652C12.0834 7.16782 12.0834 8.41651 12.0835 9.91396V10.0435C11.7961 10.0529 11.5184 10.0644 11.2502 10.0784V23.7507L16.7243 23.7507C17.0661 23.7505 17.4358 23.7504 17.7478 23.7923C18.1134 23.8415 18.5803 23.9679 18.9733 24.3609C19.3663 24.7539 19.4927 25.2209 19.5419 25.5864C19.5838 25.8984 19.5837 26.2681 19.5835 26.6099V28.3914C19.5837 28.7333 19.5838 29.1029 19.5419 29.415C19.4927 29.7805 19.3663 30.2475 18.9733 30.6405C18.5803 31.0335 18.1134 31.1599 17.7478 31.209C17.4358 31.251 17.0662 31.2508 16.7243 31.2507L11.2502 31.2507V36.5896C12.7412 36.6673 14.5208 36.6673 16.6668 36.6673H23.3335C25.4795 36.6673 27.2591 36.6673 28.7502 36.5896V10.0784C28.4819 10.0644 28.2043 10.0529 27.9168 10.0435V9.914C27.9169 8.41655 27.9169 7.16782 27.7836 6.17652C27.643 5.1302 27.3335 4.18553 26.5744 3.42642C25.8153 2.6673 24.8706 2.35785 23.8243 2.21718C22.833 2.0839 21.5843 2.08394 20.0868 2.08399ZM25.4168 10.0038V10.0007C25.4168 8.39397 25.4142 7.3147 25.3059 6.50964C25.2025 5.74054 25.0238 5.41138 24.8066 5.19418C24.5894 4.97699 24.2603 4.79829 23.4912 4.69488C22.6861 4.58664 21.6069 4.58399 20.0002 4.58399C18.3935 4.58399 17.3142 4.58664 16.5092 4.69488C15.7401 4.79829 15.4109 4.97699 15.1937 5.19418C14.9765 5.41138 14.7978 5.74054 14.6944 6.50964C14.5862 7.3147 14.5835 8.39397 14.5835 10.0007V10.0038C15.2369 10.0007 15.9303 10.0007 16.6668 10.0007H23.3335C24.0701 10.0007 24.7635 10.0007 25.4168 10.0038Z" fill="#2A254D"/>
<path d="M34.7142 34.7147C33.8495 35.5794 32.7513 36.0612 31.2502 36.3296V10.3383C32.7513 10.6068 33.8495 11.0885 34.7142 11.9533C36.6668 13.9059 36.6668 17.0486 36.6668 23.334C36.6668 29.6194 36.6668 32.7621 34.7142 34.7147Z" fill="#2A254D"/>
<path d="M5.28612 11.9533C6.15086 11.0885 7.24901 10.6068 8.75016 10.3383V23.82C8.41657 23.8849 8.02833 24.0263 7.69372 24.3609C7.30072 24.7539 7.17433 25.2209 7.12518 25.5864C7.08323 25.8984 7.08338 26.2681 7.08351 26.6099V28.3914C7.08338 28.7333 7.08323 29.1029 7.12518 29.415C7.17433 29.7805 7.30072 30.2475 7.69372 30.6405C8.02833 30.9751 8.41657 31.1164 8.75016 31.1814V36.3296C7.24901 36.0612 6.15086 35.5794 5.28612 34.7147C3.3335 32.7621 3.3335 29.6194 3.3335 23.334C3.3335 17.0486 3.3335 13.9059 5.28612 11.9533Z" fill="#2A254D"/>
<path d="M9.58545 26.2526C9.58358 26.3684 9.58353 26.5022 9.58353 26.6673V28.334C9.58353 28.4991 9.58358 28.633 9.58545 28.7488C9.70121 28.7506 9.83506 28.7507 10.0002 28.7507H16.6669C16.832 28.7507 16.9658 28.7506 17.0816 28.7488C17.0835 28.633 17.0835 28.4991 17.0835 28.334V26.6673C17.0835 26.5022 17.0835 26.3684 17.0816 26.2526C16.9658 26.2507 16.832 26.2507 16.6669 26.2507H10.0002C9.83506 26.2507 9.70121 26.2507 9.58545 26.2526Z" fill="#2A254D"/>
</svg>