<svg xmlns="http://www.w3.org/2000/svg" width="40" height="40" viewBox="0 0 40 40" fill="none">
<path d="M36.6665 8.33398C36.6665 11.0954 34.4279 13.334 31.6665 13.334C28.9051 13.334 26.6665 11.0954 26.6665 8.33398C26.6665 5.57256 28.9051 3.33398 31.6665 3.33398C34.4279 3.33398 36.6665 5.57256 36.6665 8.33398Z" fill="#FF6600"/>
<path fill-rule="evenodd" clip-rule="evenodd" d="M20.0002 3.33398C22.3314 3.33398 24.3168 3.33398 26.0201 3.39775C24.8661 4.71677 24.1668 6.44371 24.1668 8.33398C24.1668 12.4761 27.5247 15.834 31.6668 15.834C33.5571 15.834 35.284 15.1347 36.6031 13.9807C36.6668 15.684 36.6668 17.6694 36.6668 20.0007C36.6668 27.8574 36.6668 31.7858 34.2261 34.2265C31.7853 36.6673 27.8569 36.6673 20.0002 36.6673C12.1434 36.6673 8.21505 36.6673 5.77427 34.2265C3.3335 31.7858 3.3335 27.8574 3.3335 20.0007C3.3335 12.1439 3.3335 8.21554 5.77427 5.77476C8.21505 3.33398 12.1434 3.33398 20.0002 3.33398ZM24.1668 17.9173C23.4765 17.9173 22.9168 17.3577 22.9168 16.6673C22.9168 15.977 23.4765 15.4173 24.1668 15.4173H28.3335C29.0239 15.4173 29.5835 15.977 29.5835 16.6673V20.834C29.5835 21.5243 29.0239 22.084 28.3335 22.084C27.6431 22.084 27.0835 21.5243 27.0835 20.834V19.6851L23.7292 23.0394C22.5902 24.1784 20.7435 24.1784 19.6044 23.0394L16.9615 20.3964C16.7987 20.2337 16.5349 20.2337 16.3722 20.3964L12.5507 24.2179C12.0626 24.706 11.2711 24.706 10.7829 24.2179C10.2948 23.7297 10.2948 22.9383 10.7829 22.4501L14.6044 18.6286C15.7435 17.4896 17.5902 17.4896 18.7292 18.6286L21.3722 21.2716C21.5349 21.4343 21.7987 21.4343 21.9615 21.2716L25.3157 17.9173H24.1668Z" fill="#FF6600"/>
</svg>